<svg fill="none" height="18" viewBox="0 0 25 24" width="18" xmlns="http://www.w3.org/2000/svg">
  <g clip-rule="evenodd" fill-rule="evenodd">
    <path d="m1.47266 12c0-5.93706 4.81294-10.75 10.75004-10.75 5.937 0 10.75 4.81294 10.75 10.75 0 5.9371-4.813 10.75-10.75 10.75-5.9371 0-10.75004-4.8129-10.75004-10.75z" fill="rgba(82, 67, 194, 0.103693)"/>
    <path d="m15.6434 8.37844c.3433.2318.4336.698.2018 1.04127l-4.0515 5.99999c-.1311.1942-.3454.3159-.5793.3291s-.4606-.0836-.6127-.2618l-1.94844-2.2822c-.26895-.3151-.2316-.7885.08342-1.0574.31502-.269.78842-.2316 1.05737.0834l1.30825 1.5324 3.4998-5.18291c.2318-.34328.698-.43365 1.0413-.20185z" fill = "var(--icon-color, #5243C2)" style="stroke-width: 2px;"/>
  </g>
</svg>
